<?xml version="1.0" encoding="UTF-8" standalone="no"?>
<svg
   xmlns:dc="http://purl.org/dc/elements/1.1/"
   xmlns:cc="http://creativecommons.org/ns#"
   xmlns:rdf="http://www.w3.org/1999/02/22-rdf-syntax-ns#"
   xmlns:svg="http://www.w3.org/2000/svg"
   xmlns="http://www.w3.org/2000/svg"
   xmlns:sodipodi="http://sodipodi.sourceforge.net/DTD/sodipodi-0.dtd"
   xmlns:inkscape="http://www.inkscape.org/namespaces/inkscape"
   viewBox="0 0 48 48"
   width="480px"
   height="480px"
   version="1.1"
   id="svg22"
   sodipodi:docname="inbox2.svg"
   inkscape:version="0.92.4 (5da689c313, 2019-01-14)">
  <metadata
     id="metadata28">
    <rdf:RDF>
      <cc:Work
         rdf:about="">
        <dc:format>image/svg+xml</dc:format>
        <dc:type
           rdf:resource="http://purl.org/dc/dcmitype/StillImage" />
        <dc:title></dc:title>
      </cc:Work>
    </rdf:RDF>
  </metadata>
  <defs
     id="defs26" />
  <sodipodi:namedview
     pagecolor="#ffffff"
     bordercolor="#666666"
     borderopacity="1"
     objecttolerance="10"
     gridtolerance="10"
     guidetolerance="10"
     inkscape:pageopacity="0"
     inkscape:pageshadow="2"
     inkscape:window-width="1920"
     inkscape:window-height="1013"
     id="namedview24"
     showgrid="false"
     inkscape:zoom="1.3906433"
     inkscape:cx="232.37288"
     inkscape:cy="265.83112"
     inkscape:window-x="-9"
     inkscape:window-y="-9"
     inkscape:window-maximized="1"
     inkscape:current-layer="svg22" />
  <path
     fill="#2196F3"
     d="M45,34V18c0-4.418-3.582-8-8-8H16c-4.418,0-8,3.582-8,8v16H45z"
     id="path2" />
  <path
     d="m 34,4.29 v 4 h -6 v -4 z"
     id="path4"
     inkscape:connector-curvature="0"
     style="fill:#ff3d00" />
  <path
     fill="#FF3D00"
     d="M29 16A2 2 0 1 0 29 20A2 2 0 1 0 29 16Z"
     id="path8" />
  <path
     fill="#DD2C00"
     d="M29 17A1 1 0 1 0 29 19A1 1 0 1 0 29 17Z"
     id="path10" />
  <path
     fill="#FFCC80"
     d="M25 34H30V44H25z"
     id="path12"
     style="fill:#ffa726;fill-opacity:1" />
  <path
     fill="#FFA726"
     d="M25 34H30V36H25z"
     id="path14" />
  <path
     fill="#1976D2"
     d="M16,10c-4.411,0-8,3.589-8,8v14v2h2h12h2v-2V18C24,13.589,20.411,10,16,10L16,10z"
     id="path16" />
  <path
     fill="#64B5F6"
     d="M16,12c-3.309,0-6,2.691-6,6v14h12V18C22,14.691,19.309,12,16,12z"
     id="path18" />
  <path
     fill="#0D47A1"
     d="M20,20c0,0.552-0.448,1-1,1h-6c-0.552,0-1-0.448-1-1l0,0c0-0.552,0.448-1,1-1h6C19.552,19,20,19.448,20,20L20,20z"
     id="path20" />
  <path
     inkscape:connector-curvature="0"
     style="fill:#ff3d00;stroke-width:1"
     d="m 30,6.63 v 10 h -2 v -10 z"
     id="path6" />
</svg>
